<svg version="1.1" xmlns="http://www.w3.org/2000/svg" width="1100" height="825" viewBox="0 0 1100 825" preserveAspectRatio="xMidYMid slice" focusable="false">
  <defs>
    <linearGradient id="bg" x1="0" y1="0" x2="1" y2="1">
      <stop offset="0" stop-color="#FFF5E8"/>
      <stop offset="0.58" stop-color="#F4E3D2"/>
      <stop offset="1" stop-color="#D7BFA8"/>
    </linearGradient>
  </defs>
  <rect width="100%" height="100%" fill="url(#bg)"/>
  <circle cx="154" cy="140" r="148" fill="#FFFDF8" opacity="0.72"/>
  <circle cx="924" cy="182" r="165" fill="#9AA77B" opacity="0.20"/>
  <circle cx="825" cy="644" r="182" fill="#E56F6F" opacity="0.13"/>
  <path d="M80 650 C270 520 410 710 585 560 S820 420 1010 520" fill="none" stroke="#5D694B" stroke-width="12" stroke-linecap="round" opacity="0.34"/>
  <rect x="150" y="260" width="800" height="270" rx="45" fill="#8D745F" opacity="0.38"/>
  <rect x="210" y="300" width="220" height="140" rx="20" fill="#FFFDF8" opacity="0.82" transform="rotate(-4 320 370)"/>
  <rect x="510" y="320" width="260" height="150" rx="22" fill="#FFFDF8" opacity="0.78" transform="rotate(5 640 395)"/>
  <path d="M155 245 C240 170 300 205 330 250" fill="none" stroke="#E56F6F" stroke-width="24" stroke-linecap="round" opacity="0.55"/>
  <path d="M920 245 C840 175 780 205 750 250" fill="none" stroke="#9AA77B" stroke-width="24" stroke-linecap="round" opacity="0.62"/>
  <circle cx="450" cy="405" r="22" fill="#D8A91E"/>
  <circle cx="815" cy="365" r="22" fill="#8B78C8"/>

</svg>
